<svg xmlns:dc="http://purl.org/dc/elements/1.1/" xmlns:cc="http://creativecommons.org/ns#" xmlns:rdf="http://www.w3.org/1999/02/22-rdf-syntax-ns#" xmlns:svg="http://www.w3.org/2000/svg" xmlns="http://www.w3.org/2000/svg" viewBox="0 0 1466.76 500.02667" height="500.02667" width="1466.76" xml:space="preserve" id="svg2"><metadata></metadata><defs id="defs6"></defs><g transform="matrix(1.3333333,0,0,-1.3333333,0,500.02667)" id="g10"><g transform="scale(0.1)" id="g12"><path id="path14" style="fill:#000000;fill-opacity:1;fill-rule:nonzero;stroke:none" d="m 4227.79,155.988 c 114.76,0 168.02,56.973 168.02,123.231 0,159.312 -262.94,92.902 -262.94,199.101 0,37.91 31.64,68.989 105.46,68.989 38.47,0 81.27,-11.188 119.08,-35.43 l 20.44,49.672 c -35.92,24.769 -88.64,38.398 -139.52,38.398 -114.14,0 -166.16,-56.988 -166.16,-124.121 0,-161.308 262.95,-94.406 262.95,-200.328 0,-37.77 -32.27,-66.871 -107.33,-66.871 -55.84,0 -111.03,21.051 -143.23,50.152 l -22.93,-48.301 c 34.69,-32.199 99.77,-54.492 166.16,-54.492"></path><path id="path16" style="fill:#000000;fill-opacity:1;fill-rule:nonzero;stroke:none" d="m 5153.69,155.988 c 132.12,0 230.04,94.203 230.04,221.981 0,127.781 -97.92,221.98 -230.04,221.98 -133.37,0 -231.28,-94.82 -231.28,-221.98 0,-127.16 97.91,-221.981 231.28,-221.981 z m 0,55.121 c -97.39,0 -169.35,70.711 -169.35,166.86 0,96.14 71.96,166.859 169.35,166.859 96.14,0 168.1,-70.719 168.1,-166.859 0,-96.149 -71.96,-166.86 -168.1,-166.86"></path><path id="path18" style="fill:#000000;fill-opacity:1;fill-rule:nonzero;stroke:none" d="m 6256.29,541.109 v 53.879 H 5950.01 V 160.949 h 61.94 v 175.512 h 217.67 v 53.25 h -217.67 v 151.398 h 244.34"></path><path id="path20" style="fill:#000000;fill-opacity:1;fill-rule:nonzero;stroke:none" d="m 6904.43,160.949 h 61.32 v 380.16 h 148.84 v 53.879 h -359 v -53.879 h 148.84 v -380.16"></path><path id="path22" style="fill:#000000;fill-opacity:1;fill-rule:nonzero;stroke:none" d="M 8202.97,594.988 8083.29,240.25 7963.62,594.988 h -57.05 L 7784.41,242.109 7667.22,594.988 h -63.87 l 145.1,-434.039 h 66.35 l 118.43,346.59 118.44,-346.59 h 65.11 l 145.1,434.039 h -58.91"></path><path id="path24" style="fill:#000000;fill-opacity:1;fill-rule:nonzero;stroke:none" d="m 9119.57,160.949 h 65.11 L 8987.5,594.988 h -61.39 L 8729.56,160.949 h 63.86 l 47.75,108.531 h 230.66 z m -256.7,158.063 93.63,212.797 93.63,-212.797 h -187.26"></path><path id="path26" style="fill:#000000;fill-opacity:1;fill-rule:nonzero;stroke:none" d="m 10078.3,160.949 -102.86,145.723 c 60.76,21.668 95.46,70.027 95.46,137.039 0,94.301 -68.2,151.277 -181.07,151.277 H 9720.57 V 160.949 h 61.94 v 132.102 h 107.32 c 9.31,0 18.61,0.609 27.3,1.23 l 93.67,-133.332 z M 9887.97,345.68 h -105.46 v 195.429 h 105.46 c 79.41,0 120.93,-35.359 120.93,-97.398 0,-62.051 -41.52,-98.031 -120.93,-98.031"></path><path id="path28" style="fill:#000000;fill-opacity:1;fill-rule:nonzero;stroke:none" d="m 10704.7,214.828 v 140.231 h 217.7 v 52.64 h -217.7 v 133.41 h 244.3 v 53.879 h -306.2 V 160.949 h 314.9 v 53.879 h -253"></path><path id="path30" style="fill:#0080cb;fill-opacity:1;fill-rule:nonzero;stroke:none" d="M 8262.39,868.59 7718,1466.23 h -638.35 v 271.82 h 759.08 c 127.37,0 223.37,34.62 287.98,103.84 64.61,69.22 96.91,169.37 96.91,300.44 0,131.06 -33.69,228.44 -101.07,292.12 -67.38,63.69 -161.98,95.53 -283.82,95.53 H 6742.21 V 868.59 h -348.89 v 2013.06 h 1445.41 c 114.45,0 216.9,-17.08 307.36,-51.23 90.45,-34.15 167.06,-83.07 229.82,-146.76 62.77,-63.68 110.76,-140.75 143.99,-231.21 33.23,-90.45 49.84,-191.98 49.84,-304.59 0,-167.98 -36.45,-308.74 -109.37,-422.27 -72.92,-113.53 -174.91,-195.21 -305.97,-245.05 l 257.92,-260.29 h 1962.58 c 94.2,0 166.6,24 217.4,72 50.8,47.99 76.1,111.68 76.1,191.06 0,86.76 -25.3,151.83 -76.1,195.21 -50.8,43.38 -123.2,65.07 -217.4,65.07 h -924.82 c -94.15,0 -179.52,14.31 -256.13,42.92 -76.61,28.61 -141.22,68.3 -193.83,119.07 -52.61,50.76 -93.22,111.22 -121.84,181.37 -28.61,70.14 -42.92,146.75 -42.92,229.82 0,81.23 13.39,156.45 40.15,225.67 26.77,69.23 66.46,128.76 119.07,178.6 52.61,49.85 117.68,89.07 195.21,117.69 77.54,28.61 166.14,42.92 265.83,42.92 H 10901 V 2529.98 H 9455.62 c -81.23,0 -143.99,-21.69 -188.29,-65.07 -44.31,-43.38 -66.46,-103.83 -66.46,-181.37 0,-77.53 22.61,-137.52 67.84,-179.98 45.23,-42.46 106.61,-63.69 184.14,-63.69 h 922.05 c 204.9,0 360.5,-47.99 466.6,-143.98 106.1,-96 159.2,-241.83 159.2,-437.5 0,-84.92 -12.9,-163.37 -38.8,-235.37 -25.8,-71.99 -64.6,-134.29 -116.2,-186.91 -51.7,-52.61 -116.8,-93.68 -195.3,-123.219 -78.4,-29.532 -170.3,-44.301 -275.5,-44.301 H 8262.39"></path><path id="path32" style="fill:#0080cb;fill-opacity:1;fill-rule:nonzero;stroke:none" d="m 4061.63,868.41 v 2013.24 h 1165.84 c 142.16,0 273.23,-24 393.23,-72 120,-48.01 223.39,-115.39 310.16,-202.16 86.77,-86.77 154.61,-190.61 203.54,-311.54 48.92,-120.92 73.38,-254.31 73.38,-400.15 0,-145.85 -24.46,-281.54 -73.38,-407.08 -48.93,-125.54 -116.77,-234 -203.54,-325.39 -86.77,-91.38 -190.16,-163.381 -310.16,-215.998 -120,-52.613 -251.07,-78.922 -393.23,-78.922 z m 1165.84,351.69 c 90.47,0 174,16.62 250.62,49.85 76.61,33.23 143.08,78.92 199.38,137.08 56.31,58.15 100.16,127.84 131.54,209.07 31.39,81.24 47.08,168.93 47.08,263.08 0,94.16 -15.69,181.39 -47.08,261.69 -31.38,80.31 -75.23,149.08 -131.54,206.31 -56.3,57.23 -122.77,102 -199.38,134.31 -76.62,32.31 -160.15,48.46 -250.62,48.46 H 4410.55 V 1220.1 h 816.92"></path><path id="path34" style="fill:#0080cb;fill-opacity:1;fill-rule:evenodd;stroke:none" d="m 1781.45,3545.42 c -0.72,-0.04 -1.45,-0.08 -2.17,-0.12 -76,-3.76 -148.19,33.77 -188.8,98.21 l -35.25,55.93 c -10.42,16.53 -29.95,24.92 -49.11,21.09 -150.88,-30.17 -294.64,-77.61 -429.36,-140.76 -17.67,-8.29 -28.41,-26.61 -27,-46.08 0,0 1.88,-25.9 4.3,-60 0,-0.02 0,-0.05 0.01,-0.07 5.65,-78.03 -31.38,-153 -96.781,-195.91 -0.027,-0.01 -10.527,-6.9 -20.789,-12.1 -61.871,-31.35 -135.672,-31.22 -197.922,1.54 l -52.75,27.76 c -17.297,9.1 -38.418,6.58 -53.09,-6.34 -113.578,-100 -214.648,-212.93 -301.078,-336.85 -11.172,-16.03 -11.301,-37.28 -0.32,-53.44 0,0 15.082,-22.21 34.711,-51.21 0.019,-0.02 0.027,-0.04 0.039,-0.06 43.191,-63.58 48.379,-145.62 13.551,-214.13 0,0 0,0 0,-0.01 -0.852,-1.68 -1.7,-3.37 -2.5,-5.07 -34.571,-68.04 -103.352,-112.15 -179.762,-115.17 l -62.367,-2.46 c -19.5,-0.77 -36.512,-13.48 -42.7815,-31.96 -47.8516,-141.2 -79.1211,-289.3 -92.050812,-442.36 -1.640628,-19.44 8.859372,-37.88 26.410112,-46.38 0,0 26.0313,-12.61 59.2813,-28.73 0.0078,0 0.0078,0 0.0195,0 69.3474,-33.59 114.8714,-102.32 118.7384,-179.29 0.031,-0.69 0.07,-1.42 0.121,-2.16 3.77,-76 -33.738,-148.21 -98.172,-188.86 l -55.7967,-35.2 c -16.5196,-10.42 -24.9024,-29.96 -21.0625,-49.11 30.1718,-150.67 77.4022,-294.66 140.5622,-429.16 8.289,-17.66 26.61,-28.39 46.059,-26.98 0,0 25.93,1.88 60.051,4.3 0.031,0.01 0.05,0.01 0.078,0.01 77.992,5.66 152.929,-31.37 195.832,-96.739 0,-0.031 5.738,-8.262 12.09,-20.789 31.339,-61.844 31.199,-135.614 -1.539,-197.832 l -27.723,-52.668 c -9.09,-17.274 -6.59,-38.352 6.269,-53.024 99.793,-113.797 213.153,-214.879 336.653,-301.308 16.008,-11.211 37.277,-11.371 53.461,-0.399 0,0 21.168,14.36 49.179,33.27 0.02,0.019 0.039,0.027 0.059,0.051 64.91,44 148.57,49.328 218.53,13.929 0.03,-0.019 8.56,-3.941 20.86,-12 57.94,-37.961 94.6,-101.871 97.37,-172.051 l 2.35,-59.511 c 0.77,-19.5 13.48,-36.5081 31.96,-42.7776 141.21,-47.8516 289.31,-79.332 442.15,-92.261712 19.43,-1.648438 37.86,8.839842 46.37,26.390612 0,0 12.59,25.9297 28.7,59.1094 0,0.0117 0,0.0117 0,0.0195 33.76,69.5708 102.73,115.2418 179.96,119.1528 0.09,0 10.94,0.687 24.03,-0.133 67.75,-4.219 130.03,-40.668 166.75,-98.899 l 34.82,-55.2419 c 10.41,-16.5195 29.94,-24.8984 49.09,-21.0781 151.08,30.168 294.83,77.602 429.53,140.531 17.7,8.27 28.46,26.61 27.05,46.098 0,0 -1.95,26.961 -4.45,62.109 0,0.024 0,0.051 0,0.071 -5.59,77.14 31.07,151.242 95.77,193.609 l 2.79,1.891 c 64.65,42.031 146.97,45.882 215.27,9.992 l 54.58,-28.68 c 17.32,-9.109 38.47,-6.562 53.13,6.399 113.11,99.96 214.14,212.851 300.75,336.511 11.21,16.008 11.38,37.278 0.42,53.457 0,0 -15.1,22.293 -34.73,51.391 -0.02,0.019 -0.03,0.039 -0.04,0.062 -43.2,63.789 -48.35,146.009 -13.45,214.689 l 2.11,4.29 c 34.8,68.34 103.86,112.56 180.55,115.54 l 61.83,2.4 c 19.49,0.76 36.5,13.44 42.78,31.9 48.09,141.24 79.36,289.6 92.08,442.49 1.62,19.41 -8.88,37.81 -26.4,46.31 0,0 -25.83,12.52 -58.9,28.57 0,0 0,0 -0.01,0 -69.59,33.74 -115.27,102.72 -119.16,179.96 -0.02,0.45 -0.05,0.95 -0.08,1.44 -3.73,76.25 33.87,148.63 98.43,189.42 l 55.54,35.1 c 16.47,10.4 24.84,29.86 21.06,48.96 -29.75,150.71 -77.19,294.51 -140.36,429.26 -8.29,17.69 -26.63,28.42 -46.11,27 0,0 -27.32,-2 -62.79,-4.54 -0.02,0 -0.05,0 -0.07,0 -76.5,-5.59 -150,30.78 -191.96,94.98 v 0.01 c -1.02,1.56 -2.05,3.11 -3.12,4.64 -41.81,63.97 -45.72,145.72 -10.1,213.51 l 29.09,55.36 c 9.09,17.29 6.56,38.39 -6.34,53.06 -99.55,113.13 -212.68,214.4 -336.37,301.03 -16.01,11.21 -37.29,11.38 -53.48,0.4 0,0 -22.42,-15.2 -51.64,-34.94 -0.02,-0.02 -0.04,-0.03 -0.06,-0.04 -63.57,-43.09 -145.53,-48.24 -213.98,-13.43 v 0 c -1.72,0.87 -3.43,1.74 -5.17,2.56 -68.12,34.6 -112.24,103.38 -115.25,179.79 l -2.46,62.17 c -0.77,19.48 -13.45,36.47 -31.9,42.75 -141.2,48.07 -289.51,79.34 -442.13,92.49 -19.47,1.68 -37.95,-8.83 -46.47,-26.42 0,0 -12.64,-26.12 -28.8,-59.47 0,0 0,-0.01 0,-0.02 -33.57,-69.35 -102.29,-114.87 -179.24,-118.74 l 0.04,0.01 z M 1977,299.359 c -4.22,-0.039 -36.04,-1.828 -55.24,-5.531 -93.95,-18.09 -175.04,-79.437 -217.53,-167 -5.29,-10.906 -10.21,-21.047 -14.43,-29.7264 C 1567,109.738 1447.56,135 1332.74,171.609 l -1.06,26.821 c -4.25,107.82 -64.19,205.32 -157.63,257.968 -14.78,8.321 -36.43,18.09 -54.93,24.211 -90.54,29.942 -190.909,16.711 -271.268,-37.757 -8,-5.411 -15.5,-10.481 -22.09,-14.942 -98.473,71.551 -189.813,153.059 -272,243.391 l 12.488,23.73 c 51.25,97.399 47.398,214.778 -10.922,307.659 -7.027,11.21 -21.539,30.22 -25.828,35.6 -61.629,77.19 -159.898,117.24 -259.859,109.99 -9.969,-0.7 -19.313,-1.37 -27.493,-1.95 -49.007,109.73 -87.019,225.82 -113.398,346.64 l 28.109,17.74 c 93.301,58.87 147.59,163.49 141.993,273.67 l -0.102,1.8 c -5.602,111.34 -71.461,210.77 -171.781,259.37 -10.969,5.32 -21.149,10.26 -29.8792,14.49 12.6212,122.96 37.7192,242.42 74.3082,357.24 l 29.68,1.18 c 110.852,4.37 210.602,68.53 260.551,167.59 l 2.031,4.12 c 50.391,99.12 42.879,217.81 -19.601,309.79 -5.95,8.79 -11.52,17.02 -16.368,24.17 71.547,98.72 153.059,189.8 243.239,272.11 l 23.761,-12.5 c 95.688,-50.35 210.348,-47.07 302.719,7.86 18.65,11.09 34.45,23.23 47.51,34.84 71.37,63.44 110.18,157.08 103.15,253.99 -0.7,9.95 -1.37,19.27 -1.95,27.43 109.87,49.05 225.86,87.22 346.83,113.63 l 17.79,-28.22 c 58.82,-93.35 163.44,-147.67 273.62,-142.08 l 1.78,0.09 c 111.34,5.6 210.77,71.46 259.35,171.8 5.33,11.02 10.29,21.25 14.53,30.02 122.66,-12.78 242.23,-37.91 357.05,-74.64 l 1.17,-29.53 c 4.37,-110.84 68.54,-210.59 167.59,-260.53 l 4.29,-2.11 c 99.04,-50.36 217.62,-42.92 309.59,19.42 8.93,6.04 17.29,11.69 24.55,16.6 98.58,-71.71 189.76,-153.33 271.79,-243.23 l -13.87,-26.38 c -51.68,-98.34 -45.84,-217 15.23,-309.8 l 2.54,-3.77 c 60.7,-92.89 167.05,-145.5 277.72,-137.41 11.01,0.78 21.29,1.52 30.2,2.17 49.04,-109.85 87.17,-225.81 113.28,-346.6 l -27.96,-17.67 c -93.44,-59.04 -147.79,-163.86 -142.2,-274.24 0.02,-0.39 0.04,-0.77 0.07,-1.16 0,0.06 -0.01,0.11 -0.01,0.17 0,-0.02 0,-0.03 0,-0.05 5.62,-111.61 71.62,-211.28 172.17,-260.03 10.84,-5.26 20.91,-10.14 29.54,-14.33 -12.46,-122.81 -37.56,-242.39 -74.3,-357.22 l -29.15,-1.13 c -111.18,-4.32 -211.25,-68.62 -261.39,-167.94 l -1.65,-3.38 c -50.43,-99.24 -42.99,-218.048 19.43,-310.232 5.97,-8.84 11.56,-17.109 16.42,-24.297 -71.71,-98.582 -153.2,-189.66 -243.1,-271.98 l -25.54,13.418 c -98.94,51.992 -218.3,46.172 -311.71,-15.199 -0.9,-0.59 -1.78,-1.219 -2.63,-1.872 0.21,0.172 0.43,0.34 0.65,0.5 -93.17,-61 -146.05,-167.898 -137.99,-279.16 0.77,-10.738 1.48,-20.769 2.11,-29.488 C 2494.01,193.102 2378,154.941 2256.86,128.531 l -17.36,27.539 c -56.91,90.27 -156.39,144.25 -262.5,143.289 z m -142.32,832.031 h -93.8 c -12.79,-37.09 -48.03,-63.77 -89.45,-63.77 -52.2,0 -94.58,42.38 -94.58,94.59 0,52.2 42.38,94.58 94.58,94.58 41.42,0 76.66,-26.68 89.45,-63.77 h 93.8 v 881.38 h -93.8 c -12.79,-37.1 -48.03,-63.77 -89.45,-63.77 -52.2,0 -94.58,42.38 -94.58,94.58 0,52.2 42.38,94.59 94.58,94.59 41.42,0 76.66,-26.68 89.45,-63.78 h 93.8 v 282.39 h -374.99 v -543.29 l -9.27,-22.03 -155.96,-152.54 c 5.81,-12.26 9.06,-25.95 9.06,-40.4 0,-52.21 -42.39,-94.59 -94.59,-94.59 -52.2,0 -94.58,42.38 -94.58,94.59 0,52.2 42.38,94.58 94.58,94.58 15.28,0 29.71,-3.63 42.49,-10.07 l 146.64,143.42 v 591.95 h 436.62 v 139.53 h -218.22 l -22,9.31 -91.79,97.43 c -11.46,-4.97 -24.09,-7.72 -37.37,-7.72 -51.92,0 -94.08,42.15 -94.08,94.07 0,51.92 42.16,94.08 94.08,94.08 51.92,0 94.07,-42.16 94.07,-94.08 0,-16.29 -4.14,-31.61 -11.44,-44.98 l 81.5,-86.81 h 205.25 v 329.89 c -2.27,4.01 -4.59,7.8 -6.95,11.41 -26.27,40.07 -58.92,58.78 -86.17,71.11 -38.03,18 -82.47,29.76 -125.64,29 -0.48,0 -0.96,-0.02 -1.44,-0.05 l -10.8,-0.52 c -0.49,-0.02 -0.98,-0.05 -1.47,-0.09 -23.52,-1.88 -46.48,-7.6 -67.92,-17.85 -51.4,-23.13 -92.05,-67.17 -120.83,-123.64 -1.89,-3.38 -3.73,-6.79 -5.53,-10.22 l -0.28,-0.43 -6.07,3.37 c -8.52,5.23 -16.97,9.62 -25.3,13.26 -9.15,4.25 -18.73,7.87 -28.81,10.41 -0.03,0.01 -0.07,0.02 -0.1,0.03 -3.31,0.83 -6.53,1.32 -9.65,1.52 -27.04,5.08 -52.9,3.11 -77.45,-3.79 l -0.85,-0.24 c -33.94,-9.69 -65.34,-29.26 -93.32,-51.72 -5.1,-4.09 -10.32,-8.56 -15.59,-13.37 -13.34,-10.4 -24.63,-23.49 -35.09,-37.11 -9.17,-11.22 -17.84,-23.32 -25.64,-36.11 v -422.06 c 31.81,-12.06 54.45,-42.83 54.45,-78.85 0,-46.52 -37.77,-84.28 -84.29,-84.28 -46.52,0 -84.28,37.76 -84.28,84.28 0,37.79 24.92,69.8 59.2,80.49 v 281.29 c -32.64,-11.54 -64.571,-28.45 -84.981,-46.16 -3.07,-2.46 -5.988,-5.04 -8.738,-7.74 l -1.371,-1.37 c -28.711,-26.58 -62.321,-63.87 -81.11,-110.99 -1.66,-3.01 -2.98,-6.22 -3.949,-9.58 -0.75,-2.6 -1.473,-5.21 -2.172,-7.83 -2.578,-8.46 -4.68,-17.26 -6.199,-26.35 -2.379,-11.52 -4.371,-23.11 -6.07,-34.7 0,-0.07 -0.02,-0.14 -0.032,-0.21 -2.539,-17.93 -0.289,-35.55 3.5,-53.05 2.043,-9.39 6,-18.57 5.703,-28.05 -9.91,-8.3 -44.492,-38.71 -62.242,-72.22 -20.859,-39.39 -35.398,-80.47 -32.097,-123.21 0.636,-13.29 4.308,-26.18 9.507,-38.68 1.731,-4.15 3.629,-8.26 5.461,-12.37 -1.968,-0.75 -3.789,-1.5 -5.261,-2.19 -14.168,-6.65 -25.821,-16.51 -33.661,-31.48 -8.828,-16.71 -13.968,-35.5 -17.636,-54.17 -4.602,-18.54 -1.731,-36.11 5.718,-53.04 1.879,-4.27 5.161,-10.64 7.891,-15.8 -2.371,-2.66 -4.66,-5.38 -6.902,-8.13 -0.981,-1.19 -1.891,-2.43 -2.739,-3.71 0,0 -12.851,-19.4 -22.359,-33.82 h 308.059 l 159.42,162.08 c -6.18,12.57 -9.65,26.7 -9.65,41.63 0,52.21 42.38,94.59 94.58,94.59 52.2,0 94.59,-42.38 94.59,-94.59 0,-52.2 -42.39,-94.58 -94.59,-94.58 -14.79,0 -28.8,3.41 -41.27,9.47 L 1030,1881.19 h -0.38 v -1.08 H 663.84 c -21.262,-54.54 -32.961,-113.83 -43.871,-170.06 -0.278,-1.49 -0.5,-2.99 -0.641,-4.5 -7.359,-77.09 -2.988,-160 38.844,-227.78 7.156,-12.34 16.398,-22.97 26.578,-32.8 6.66,-6.44 14,-12.27 20.449,-18.96 l -3.347,-10.5 c -3.012,-9.53 -5.122,-19.14 -5.582,-28.63 -14.79,-113.45 36.332,-180.13 108.07,-206.55 12.93,-4.76 28.371,-6.72 39.64,-7.49 -13.351,-54.68 0.008,-113 26.161,-162.23 v 149.89 394.62 c -31.801,12.06 -54.442,42.83 -54.442,78.84 0,46.52 37.77,84.29 84.281,84.29 46.52,0 84.29,-37.77 84.29,-84.29 0,-37.79 -24.918,-69.8 -59.2,-80.48 l 0.039,-392.98 v 0 -44.37 l 0.012,-64.73 v 0 -60.22 h 164.809 v 314.01 l 30.81,30.81 h 288.15 l 181.56,243.26 c -14.93,16.73 -24,38.79 -24,62.94 0,52.21 42.38,94.59 94.58,94.59 52.2,0 94.58,-42.38 94.58,-94.59 0,-52.2 -42.38,-94.58 -94.58,-94.58 -5.72,0 -11.33,0.51 -16.76,1.48 l -192.03,-260.14 -26.2,-14.59 H 1151.56 V 991.18 h 156.1 c 12.79,37.09 48.02,63.77 89.44,63.77 52.2,0 94.58,-42.38 94.58,-94.579 0,-52.199 -42.38,-94.582 -94.58,-94.582 -41.42,0 -76.65,26.672 -89.44,63.781 l -385.449,0.129 C 966.77,869.141 1029.65,808.078 1121.4,802.461 c 10.87,-0.66 32.12,1.5 42.25,2.641 45.11,-72.692 110.48,-136.774 194.78,-161.051 85.22,-26.879 170.97,-17.379 247.86,8.371 96.21,32.226 177.84,89.957 224.04,124.988 l 4.37,3.309 v 350.671 z m 71.05,61.63 v 881.38 h 91.81 c 12.79,-37.1 48.03,-63.77 89.44,-63.77 52.21,0 94.59,42.38 94.59,94.58 0,52.2 -42.38,94.59 -94.59,94.59 -41.41,0 -76.65,-26.68 -89.44,-63.78 h -91.81 v 282.39 h 364.85 v -543.29 l 9.27,-22.03 155.96,-152.54 c -5.81,-12.26 -9.05,-25.95 -9.05,-40.4 0,-52.21 42.38,-94.59 94.58,-94.59 52.2,0 94.58,42.38 94.58,94.59 0,52.2 -42.38,94.58 -94.58,94.58 -15.28,0 -29.71,-3.63 -42.49,-10.07 l -146.64,143.42 v 591.95 h -426.48 v 139.53 h 204.47 l 22,9.31 91.8,97.43 c 11.45,-4.97 24.09,-7.72 37.36,-7.72 51.92,0 94.08,42.15 94.08,94.07 0,51.92 -42.16,94.08 -94.08,94.08 -51.92,0 -94.07,-42.16 -94.07,-94.08 0,-16.29 4.14,-31.61 11.44,-44.98 l -81.5,-86.81 h -191.5 v 346.24 c 25.65,36.68 56.69,54.34 82.68,66.1 34.09,16.15 73.34,27.34 112.18,28.91 0.45,0.02 0.9,0.03 1.35,0.04 l 10.86,0.13 c 0.46,0 0.92,0 1.39,0 28.26,-0.5 56.01,-6.27 81.46,-18.43 51.51,-23.16 92.2,-67.22 120.99,-123.72 1.9,-3.39 3.75,-6.8 5.55,-10.25 l 0.27,-0.4 6.01,3.34 c 8.53,5.23 16.97,9.62 25.12,13.18 9.3,4.33 18.92,7.97 29.05,10.52 0.03,0.01 0.07,0.02 0.1,0.03 3.31,0.83 6.52,1.32 9.59,1.51 27.1,5.09 52.96,3.12 77.51,-3.78 l 0.85,-0.24 c 33.94,-9.69 65.33,-29.26 93.32,-51.72 5.1,-4.09 10.33,-8.56 15.54,-13.33 13.37,-10.42 24.65,-23.5 35.07,-37.06 9.26,-11.33 18.01,-23.56 25.87,-36.48 v -421.78 c -31.81,-12.06 -54.45,-42.83 -54.45,-78.85 0,-46.52 37.77,-84.28 84.29,-84.28 46.52,0 84.29,37.76 84.29,84.28 0,37.79 -24.92,69.8 -59.21,80.49 v 281.23 c 32.37,-11.47 63.99,-28.18 84.37,-45.72 l 0.45,-0.38 c 3.58,-2.87 6.96,-5.9 10.03,-9.04 28.78,-26.64 62.4,-63.94 81.18,-111.06 1.66,-3.01 2.99,-6.22 3.96,-9.58 0.74,-2.59 1.46,-5.2 2.13,-7.72 2.61,-8.53 4.72,-17.35 6.24,-26.46 2.38,-11.51 4.37,-23.1 6.07,-34.7 0.01,-0.07 0.02,-0.14 0.03,-0.21 2.54,-17.93 0.29,-35.55 -3.51,-53.05 -2.03,-9.39 -5.99,-18.57 -5.69,-28.05 9.91,-8.3 44.49,-38.71 62.24,-72.22 20.85,-39.37 35.39,-80.45 32.11,-123.1 -0.67,-13.49 -4.34,-26.34 -9.52,-38.79 -1.73,-4.15 -3.63,-8.26 -5.47,-12.37 1.98,-0.75 3.8,-1.5 5.27,-2.19 14.17,-6.65 25.81,-16.51 33.66,-31.48 8.83,-16.71 13.97,-35.51 17.62,-54.09 4.62,-18.61 1.75,-36.19 -5.7,-53.12 -1.89,-4.28 -5.16,-10.65 -7.89,-15.8 12.45,-14.3 23.34,-29.59 32.94,-45.66 h -308.84 l -159.42,162.08 c 6.18,12.57 9.65,26.7 9.65,41.63 0,52.21 -42.38,94.59 -94.58,94.59 -52.2,0 -94.58,-42.38 -94.58,-94.59 0,-52.2 42.38,-94.58 94.58,-94.58 14.79,0 28.8,3.41 41.27,9.47 l 176.27,-179.15 h 0.38 v -1.08 h 365.11 c 21.36,-54.62 33.44,-113.73 44.36,-170.06 0.29,-1.49 0.51,-2.99 0.65,-4.5 7.36,-77.08 2.99,-159.98 -38.78,-227.68 -7.23,-12.45 -16.47,-23.07 -26.64,-32.9 -6.67,-6.44 -14.01,-12.27 -20.45,-18.96 l 3.35,-10.5 c 3.01,-9.54 5.12,-19.15 5.57,-28.58 14.8,-113.49 -36.32,-180.18 -108.06,-206.6 -12.93,-4.76 -28.37,-6.72 -39.65,-7.49 13.33,-54.57 0.05,-112.76 -25.98,-161.92 v 65.39 478.81 c 31.81,12.06 54.44,42.83 54.44,78.84 0,46.52 -37.76,84.29 -84.28,84.29 -46.52,0 -84.29,-37.77 -84.29,-84.29 0,-37.79 24.92,-69.8 59.21,-80.48 l -0.06,-521.39 h 0.01 V 991.191 H 2640.36 V 1305.2 l -30.81,30.81 H 2321.4 l -181.56,243.26 c 14.93,16.73 24.01,38.79 24.01,62.94 0,52.21 -42.39,94.59 -94.59,94.59 -52.2,0 -94.58,-42.38 -94.58,-94.59 0,-52.2 42.38,-94.58 94.58,-94.58 5.72,0 11.33,0.51 16.76,1.48 l 192.03,-260.14 26.2,-14.59 h 274.48 V 991.191 h -156.1 c -12.79,37.089 -48.02,63.769 -89.44,63.769 -52.2,0 -94.58,-42.38 -94.58,-94.581 0,-52.199 42.38,-94.578 94.58,-94.578 41.42,0 76.65,26.668 89.44,63.777 l 385.27,0.121 c -44.56,-60.558 -107.43,-121.609 -199.17,-127.23 -10.87,-0.66 -32.12,1.5 -42.25,2.64 -45.09,-72.66 -110.42,-136.711 -194.57,-160.988 -85.38,-26.949 -171.15,-17.449 -248.07,8.309 -92.23,30.898 -171.07,85.23 -218.11,120.511 V 1131.4 h 91.81 c 12.79,-37.09 48.03,-63.77 89.44,-63.77 52.21,0 94.59,42.38 94.59,94.59 0,52.2 -42.38,94.58 -94.59,94.58 -41.41,0 -76.65,-26.68 -89.44,-63.77 h -91.81 z m -508.65,-186.04 c 25.73,0 46.62,-20.878 46.62,-46.609 0,-25.73 -20.89,-46.621 -46.62,-46.621 -25.73,0 -46.61,20.891 -46.61,46.621 0,25.731 20.88,46.609 46.61,46.609 z m 936.11,0 c -25.73,0 -46.62,-20.878 -46.62,-46.609 0,-25.73 20.89,-46.621 46.62,-46.621 25.73,0 46.61,20.891 46.61,46.621 0,25.731 -20.88,46.609 -46.61,46.609 z m -246.21,202.75 c 26.23,0 47.53,-21.3 47.53,-47.52 0,-26.23 -21.3,-47.52 -47.53,-47.52 -26.22,0 -47.52,21.29 -47.52,47.52 0,26.22 21.3,47.52 47.52,47.52 z m -435.55,0 c -26.23,0 -47.52,-21.3 -47.52,-47.52 0,-26.23 21.29,-47.52 47.52,-47.52 26.23,0 47.52,21.29 47.52,47.52 0,26.22 -21.29,47.52 -47.52,47.52 z m -793,424.23 c 0,-22.93 18.621,-41.54 41.539,-41.54 22.929,0 41.551,18.61 41.551,41.54 0,22.93 -18.622,41.54 -41.551,41.54 -22.918,0 -41.539,-18.61 -41.539,-41.54 z m 2013.41,0 c 0,-22.93 -18.62,-41.54 -41.54,-41.54 -22.93,0 -41.54,18.61 -41.54,41.54 0,22.93 18.61,41.54 41.54,41.54 22.92,0 41.54,-18.61 41.54,-41.54 z m -1210.83,54.86 c 25.73,0 46.61,-20.89 46.61,-46.62 0,-25.72 -20.88,-46.61 -46.61,-46.61 -25.73,0 -46.62,20.89 -46.62,46.61 0,25.73 20.89,46.62 46.62,46.62 z m 408.25,0 c -25.73,0 -46.61,-20.89 -46.61,-46.62 0,-25.72 20.88,-46.61 46.61,-46.61 25.73,0 46.62,20.89 46.62,46.61 0,25.73 -20.89,46.62 -46.62,46.62 z m -860.33,17.94 c 25.73,0 46.62,-20.89 46.62,-46.61 0,-25.73 -20.89,-46.62 -46.62,-46.62 -25.73,0 -46.61,20.89 -46.61,46.62 0,25.72 20.88,46.61 46.61,46.61 z m 1312.41,0 c -25.73,0 -46.62,-20.89 -46.62,-46.61 0,-25.73 20.89,-46.62 46.62,-46.62 25.73,0 46.61,20.89 46.61,46.62 0,25.72 -20.88,46.61 -46.61,46.61 z m -869.91,445.97 c -26.23,0 -47.52,-21.29 -47.52,-47.52 0,-26.23 21.29,-47.52 47.52,-47.52 26.23,0 47.52,21.29 47.52,47.52 0,26.23 -21.29,47.52 -47.52,47.52 z m 435.55,0 c 26.23,0 47.53,-21.29 47.53,-47.52 0,-26.23 -21.3,-47.52 -47.53,-47.52 -26.22,0 -47.52,21.29 -47.52,47.52 0,26.23 21.3,47.52 47.52,47.52 z m 395.76,39.34 c -25.73,0 -46.62,-20.89 -46.62,-46.62 0,-25.72 20.89,-46.61 46.62,-46.61 25.73,0 46.61,20.89 46.61,46.61 0,25.73 -20.88,46.62 -46.61,46.62 z m -1235.21,0 c 25.73,0 46.62,-20.89 46.62,-46.62 0,-25.72 -20.89,-46.61 -46.62,-46.61 -25.72,0 -46.61,20.89 -46.61,46.61 0,25.73 20.89,46.62 46.61,46.62 z m 1381.26,162.74 c 0,22.93 18.61,41.54 41.54,41.54 22.93,0 41.54,-18.61 41.54,-41.54 0,-22.92 -18.61,-41.54 -41.54,-41.54 -22.93,0 -41.54,18.62 -41.54,41.54 z m -1527.31,0 c 0,22.93 -18.61,41.54 -41.54,41.54 -22.92,0 -41.54,-18.61 -41.54,-41.54 0,-22.92 18.62,-41.54 41.54,-41.54 22.93,0 41.54,18.62 41.54,41.54 z m 1774.62,115.74 -0.77,-1.07 z m -87.38,136.24 -1.2,-1.65 0.38,0.47 z m 0.88,1.27 c 0.29,0.42 0.56,0.84 0.83,1.27 0.27,0.44 0.53,0.87 0.78,1.32 z m 1.68,2.71 c 0.29,0.5 0.56,1.01 0.83,1.52 0.27,0.51 0.53,1.03 0.77,1.56 z m 1.66,3.2 c 0.25,0.52 0.49,1.05 0.72,1.59 0.23,0.54 0.45,1.09 0.65,1.64 z m 2.55,6.69 -1.13,-3.33 0.45,1.21 c 0.25,0.71 0.47,1.41 0.68,2.12 z m 0.03,0.11 c 0.16,0.56 0.32,1.13 0.46,1.7 0.15,0.57 0.28,1.14 0.4,1.71 z m 1.88,13.2 -0.04,-1.95 0.06,0.96 z m -0.13,3.55 0.11,-1.93 -0.02,1 z m -0.39,3.52 0.24,-1.9 -0.09,1.04 z m -0.66,3.47 0.38,-1.85 -0.18,1.06 z m -0.91,3.4 0.51,-1.77 z m -2.58,6.59 0.74,-1.65 z m -5.92,9.32 1.3,-1.71 -0.75,1.03 z m -2.38,2.7 2.15,-2.42 c -0.69,0.83 -1.4,1.64 -2.15,2.42 z m -0.27,0.28 c -0.37,0.39 -0.75,0.77 -1.14,1.14 -0.39,0.37 -0.78,0.74 -1.19,1.1 z M 1465.3,2859.02 c 25.59,0 46.36,-20.78 46.36,-46.37 0,-25.59 -20.77,-46.36 -46.36,-46.36 -25.59,0 -46.37,20.77 -46.37,46.36 0,25.59 20.78,46.37 46.37,46.37 z m 796.06,0 c -25.59,0 -46.36,-20.78 -46.36,-46.37 0,-25.59 20.77,-46.36 46.36,-46.36 25.59,0 46.37,20.77 46.37,46.36 0,25.59 -20.78,46.37 -46.37,46.37 z m -848.31,120.31 v -0.03 l 0.02,0.03 v 0"></path></g></g></svg>